<?xml version="1.0" encoding="utf-8"?>
<!-- Generator: Adobe Illustrator 26.0.0, SVG Export Plug-In . SVG Version: 6.00 Build 0)  -->
<svg version="1.1" id="Calque_1" xmlns="http://www.w3.org/2000/svg" xmlns:xlink="http://www.w3.org/1999/xlink" x="0px" y="0px"
	 viewBox="0 0 159 38" style="enable-background:new 0 0 159 38;" xml:space="preserve">
<style type="text/css">
	.st0{fill:#FFFFFF;}
	.st1{fill:#F23849;}
</style>
<path class="st0" d="M62.4,31H58V9.3h15.2v4.3H62.4V18h6.5v4.3h-6.5V31z"/>
<path class="st0" d="M80.9,10.4c0,0.4-0.1,0.7-0.2,1.1c-0.1,0.3-0.3,0.6-0.6,0.9c-0.3,0.2-0.5,0.4-0.9,0.6c-0.3,0.1-0.7,0.2-1.1,0.2
	c-0.4,0-0.7-0.1-1.1-0.2c-0.3-0.2-0.6-0.3-0.9-0.6c-0.2-0.3-0.4-0.5-0.6-0.9c-0.1-0.3-0.2-0.7-0.2-1.1c0-0.4,0.1-0.7,0.2-1.1
	c0.2-0.3,0.3-0.6,0.6-0.9C76.4,8.2,76.7,8,77,7.9c0.3-0.2,0.7-0.2,1.1-0.2c0.4,0,0.7,0.1,1.1,0.2c0.3,0.1,0.6,0.3,0.9,0.6
	c0.3,0.2,0.4,0.5,0.6,0.9C80.8,9.7,80.9,10,80.9,10.4z M80.2,31H76V14.8h4.2V31z"/>
<path class="st0" d="M92.5,31c-1,0-1.9-0.2-2.8-0.6c-0.9-0.4-1.6-0.9-2.3-1.6c-0.7-0.7-1.2-1.4-1.6-2.3c-0.4-0.9-0.6-1.8-0.6-2.8
	v-4.8h-2v-4.1h2V8.3h4.1v6.5h6.3v4.1h-6.3v4.8c0,0.4,0.1,0.8,0.2,1.2c0.2,0.4,0.4,0.7,0.7,1c0.3,0.3,0.6,0.5,1,0.7
	c0.4,0.2,0.8,0.2,1.2,0.2h3.1V31H92.5z"/>
<path class="st0" d="M119.5,31h-4.1V20.7c0-0.3-0.1-0.5-0.2-0.8c-0.1-0.3-0.2-0.5-0.4-0.7c-0.2-0.2-0.4-0.3-0.7-0.4
	c-0.3-0.1-0.5-0.2-0.8-0.2c-0.3,0-0.6,0.1-0.8,0.2c-0.2,0.1-0.5,0.2-0.7,0.4c-0.2,0.2-0.3,0.4-0.4,0.7c-0.1,0.3-0.2,0.5-0.2,0.8V31
	h-4.1V20.7c0-0.3-0.1-0.5-0.2-0.8c-0.1-0.3-0.2-0.5-0.4-0.7c-0.2-0.2-0.4-0.3-0.7-0.4c-0.3-0.1-0.5-0.2-0.8-0.2
	c-0.3,0-0.6,0.1-0.8,0.2c-0.2,0.1-0.5,0.2-0.7,0.4c-0.2,0.2-0.3,0.4-0.4,0.7c-0.1,0.3-0.2,0.5-0.2,0.8V31h-4.1V14.8h1l1.1,1.2
	c0.6-0.5,1.2-0.9,1.9-1.1c0.7-0.3,1.4-0.4,2.2-0.4c0.8,0,1.5,0.1,2.2,0.4c0.7,0.3,1.4,0.8,1.9,1.5c0.3-0.3,0.5-0.6,0.9-0.9
	c0.3-0.2,0.7-0.4,1-0.6c0.4-0.2,0.7-0.3,1.1-0.3c0.4-0.1,0.8-0.1,1.1-0.1c0.9,0,1.7,0.2,2.4,0.5c0.8,0.3,1.4,0.8,2,1.3
	c0.6,0.6,1,1.2,1.3,2c0.3,0.8,0.5,1.6,0.5,2.4V31z"/>
<path class="st0" d="M139.3,31h-1l-1.6-2.2c-0.4,0.4-0.8,0.7-1.3,1c-0.4,0.3-0.9,0.6-1.4,0.8c-0.5,0.2-1,0.4-1.5,0.5
	c-0.5,0.1-1,0.2-1.5,0.2c-1.1,0-2.2-0.2-3.2-0.6c-1-0.4-1.9-0.9-2.6-1.7c-0.7-0.7-1.3-1.6-1.8-2.7c-0.4-1.1-0.7-2.3-0.7-3.6
	c0-1.3,0.2-2.4,0.7-3.5c0.4-1.1,1-2,1.8-2.7c0.8-0.8,1.6-1.3,2.6-1.8c1-0.4,2.1-0.6,3.2-0.6c0.5,0,1,0.1,1.6,0.2
	c0.5,0.1,1,0.3,1.5,0.5c0.5,0.2,0.9,0.5,1.4,0.8c0.4,0.3,0.9,0.7,1.2,1l1.6-1.9h1V31z M135.1,22.8c0-0.6-0.1-1.1-0.3-1.6
	c-0.2-0.5-0.5-1-0.9-1.4c-0.4-0.4-0.8-0.7-1.3-1c-0.5-0.3-1-0.4-1.6-0.4s-1.1,0.1-1.6,0.3c-0.5,0.2-0.9,0.5-1.3,0.8
	c-0.4,0.4-0.7,0.8-0.9,1.4c-0.2,0.5-0.3,1.2-0.3,1.9s0.1,1.3,0.3,1.9c0.2,0.5,0.5,1,0.9,1.4c0.4,0.4,0.8,0.7,1.3,0.8
	c0.5,0.2,1,0.3,1.6,0.3s1.1-0.1,1.6-0.4c0.5-0.3,0.9-0.6,1.3-1c0.4-0.4,0.7-0.9,0.9-1.4C135,23.9,135.1,23.3,135.1,22.8z"/>
<path class="st0" d="M158.4,31h-5.1l-3.2-5l-3.3,5h-5.1l5.9-8.3l-5.9-8h5.1l3.3,4.6l3.2-4.6h5.1l-5.9,8L158.4,31z"/>
<path class="st1" d="M38,19c0,10.5-8.5,19-19,19S0,29.5,0,19S8.5,0,19,0S38,8.5,38,19z"/>
<path class="st0" d="M17.3,27h-2.9V12.3h10.3v2.9h-7.4v2.9h4.4v2.9h-4.4V27z"/>
</svg>
